<mxfile host="65bd71144e">
    <diagram id="uJjuJuyQSKaSodwNKf35" name="G3.メイン画面">
        <mxGraphModel dx="1092" dy="710" grid="1" gridSize="10" guides="1" tooltips="1" connect="1" arrows="1" fold="1" page="1" pageScale="1" pageWidth="1169" pageHeight="827" math="0" shadow="0">
            <root>
                <mxCell id="0"/>
                <mxCell id="1" parent="0"/>
                <mxCell id="D5mw6t6R2wUG9PggTOd8-1" value="G3．メイン画面（利用者ログイン時&lt;span style=&quot;font-family: monospace; font-size: 0px; text-align: start; text-wrap-mode: nowrap;&quot;&gt;%3CmxGraphModel%3E%3Croot%3E%3CmxCell%20id%3D%220%22%2F%3E%3CmxCell%20id%3D%221%22%20parent%3D%220%22%2F%3E%3CmxCell%20id%3D%222%22%20value%3D%22%EF%BC%91%EF%BC%8E%E3%83%88%E3%83%83%E3%83%97%E7%94%BB%E9%9D%A2%22%20style%3D%22text%3Bhtml%3D1%3Balign%3Dcenter%3BverticalAlign%3Dmiddle%3BwhiteSpace%3Dwrap%3Brounded%3D0%3BfillColor%3D%23d5e8d4%3BstrokeColor%3D%2382b366%3B%22%20vertex%3D%221%22%20parent%3D%221%22%3E%3CmxGeometry%20x%3D%2210%22%20y%3D%2240%22%20width%3D%22110%22%20height%3D%2230%22%20as%3D%22geometry%22%2F%3E%3C%2FmxCell%3E%3C%2Froot%3E%3C%2FmxGraphModel%3E&lt;/span&gt;）" style="text;html=1;align=center;verticalAlign=middle;whiteSpace=wrap;rounded=0;fillColor=#d5e8d4;strokeColor=#82b366;" parent="1" vertex="1">
                    <mxGeometry x="40" y="40" width="250" height="30" as="geometry"/>
                </mxCell>
                <mxCell id="D5mw6t6R2wUG9PggTOd8-2" value="G3．メイン画面（職員ログイン時&lt;span style=&quot;font-family: monospace; font-size: 0px; text-align: start; text-wrap-mode: nowrap;&quot;&gt;%3CmxGraphModel%3E%3Croot%3E%3CmxCell%20id%3D%220%22%2F%3E%3CmxCell%20id%3D%221%22%20parent%3D%220%22%2F%3E%3CmxCell%20id%3D%222%22%20value%3D%22%EF%BC%91%EF%BC%8E%E3%83%88%E3%83%83%E3%83%97%E7%94%BB%E9%9D%A2%22%20style%3D%22text%3Bhtml%3D1%3Balign%3Dcenter%3BverticalAlign%3Dmiddle%3BwhiteSpace%3Dwrap%3Brounded%3D0%3BfillColor%3D%23d5e8d4%3BstrokeColor%3D%2382b366%3B%22%20vertex%3D%221%22%20parent%3D%221%22%3E%3CmxGeometry%20x%3D%2210%22%20y%3D%2240%22%20width%3D%22110%22%20height%3D%2230%22%20as%3D%22geometry%22%2F%3E%3C%2FmxCell%3E%3C%2Froot%3E%3C%2FmxGraphModel%3E&lt;/span&gt;）" style="text;html=1;align=center;verticalAlign=middle;whiteSpace=wrap;rounded=0;fillColor=#d5e8d4;strokeColor=#82b366;" parent="1" vertex="1">
                    <mxGeometry x="430" y="40" width="250" height="30" as="geometry"/>
                </mxCell>
                <mxCell id="D5mw6t6R2wUG9PggTOd8-3" value="" style="rounded=0;whiteSpace=wrap;html=1;" parent="1" vertex="1">
                    <mxGeometry x="60" y="80" width="230" height="270" as="geometry"/>
                </mxCell>
                <mxCell id="D5mw6t6R2wUG9PggTOd8-4" value="業務日報アプリ" style="text;html=1;align=center;verticalAlign=middle;whiteSpace=wrap;rounded=0;fontStyle=1" parent="1" vertex="1">
                    <mxGeometry x="112.5" y="80" width="125" height="30" as="geometry"/>
                </mxCell>
                <mxCell id="D5mw6t6R2wUG9PggTOd8-5" value="○○○さん、ログイン中。" style="text;html=1;align=left;verticalAlign=top;whiteSpace=wrap;rounded=0;fontStyle=0" parent="1" vertex="1">
                    <mxGeometry x="70" y="110" width="210" height="20" as="geometry"/>
                </mxCell>
                <mxCell id="D5mw6t6R2wUG9PggTOd8-6" value="" style="rounded=0;whiteSpace=wrap;html=1;" parent="1" vertex="1">
                    <mxGeometry x="435" y="80" width="230" height="280" as="geometry"/>
                </mxCell>
                <mxCell id="D5mw6t6R2wUG9PggTOd8-7" value="業務日報アプリ" style="text;html=1;align=center;verticalAlign=middle;whiteSpace=wrap;rounded=0;fontStyle=1" parent="1" vertex="1">
                    <mxGeometry x="492.5" y="80" width="125" height="30" as="geometry"/>
                </mxCell>
                <mxCell id="D5mw6t6R2wUG9PggTOd8-8" value="○○○さん、ログイン中。" style="text;html=1;align=left;verticalAlign=top;whiteSpace=wrap;rounded=0;fontStyle=0" parent="1" vertex="1">
                    <mxGeometry x="450" y="110" width="210" height="20" as="geometry"/>
                </mxCell>
                <mxCell id="D5mw6t6R2wUG9PggTOd8-9" value="ログアウト" style="rounded=0;whiteSpace=wrap;html=1;fontStyle=1" parent="1" vertex="1">
                    <mxGeometry x="510" y="330" width="80" height="20" as="geometry"/>
                </mxCell>
                <mxCell id="D5mw6t6R2wUG9PggTOd8-10" value="ログアウト" style="rounded=0;whiteSpace=wrap;html=1;fontStyle=1" parent="1" vertex="1">
                    <mxGeometry x="130" y="320" width="80" height="20" as="geometry"/>
                </mxCell>
                <mxCell id="D5mw6t6R2wUG9PggTOd8-11" value="&lt;u&gt;業務日報入力&lt;/u&gt;" style="rounded=0;whiteSpace=wrap;html=1;verticalAlign=top;align=center;" parent="1" vertex="1">
                    <mxGeometry x="66" y="135" width="220" height="170" as="geometry"/>
                </mxCell>
                <mxCell id="D5mw6t6R2wUG9PggTOd8-12" value="⇐　2025年5月　⇒" style="shape=table;startSize=20;container=1;collapsible=0;childLayout=tableLayout;strokeColor=default;fontSize=14;" parent="1" vertex="1">
                    <mxGeometry x="81" y="159" width="190" height="130" as="geometry"/>
                </mxCell>
                <mxCell id="D5mw6t6R2wUG9PggTOd8-13" value="" style="shape=tableRow;horizontal=0;startSize=0;swimlaneHead=0;swimlaneBody=0;strokeColor=inherit;top=0;left=0;bottom=0;right=0;collapsible=0;dropTarget=0;fillColor=none;points=[[0,0.5],[1,0.5]];portConstraint=eastwest;fontSize=10;" parent="D5mw6t6R2wUG9PggTOd8-12" vertex="1">
                    <mxGeometry y="20" width="190" height="18" as="geometry"/>
                </mxCell>
                <mxCell id="D5mw6t6R2wUG9PggTOd8-14" value="日" style="shape=partialRectangle;html=1;whiteSpace=wrap;connectable=0;strokeColor=inherit;overflow=hidden;fillColor=none;top=0;left=0;bottom=0;right=0;pointerEvents=1;fontSize=10;" parent="D5mw6t6R2wUG9PggTOd8-13" vertex="1">
                    <mxGeometry width="27" height="18" as="geometry">
                        <mxRectangle width="27" height="18" as="alternateBounds"/>
                    </mxGeometry>
                </mxCell>
                <mxCell id="D5mw6t6R2wUG9PggTOd8-15" value="月" style="shape=partialRectangle;html=1;whiteSpace=wrap;connectable=0;strokeColor=inherit;overflow=hidden;fillColor=none;top=0;left=0;bottom=0;right=0;pointerEvents=1;fontSize=10;" parent="D5mw6t6R2wUG9PggTOd8-13" vertex="1">
                    <mxGeometry x="27" width="27" height="18" as="geometry">
                        <mxRectangle width="27" height="18" as="alternateBounds"/>
                    </mxGeometry>
                </mxCell>
                <mxCell id="D5mw6t6R2wUG9PggTOd8-16" value="火" style="shape=partialRectangle;html=1;whiteSpace=wrap;connectable=0;strokeColor=inherit;overflow=hidden;fillColor=none;top=0;left=0;bottom=0;right=0;pointerEvents=1;fontSize=10;" parent="D5mw6t6R2wUG9PggTOd8-13" vertex="1">
                    <mxGeometry x="54" width="27" height="18" as="geometry">
                        <mxRectangle width="27" height="18" as="alternateBounds"/>
                    </mxGeometry>
                </mxCell>
                <mxCell id="D5mw6t6R2wUG9PggTOd8-17" value="水" style="shape=partialRectangle;html=1;whiteSpace=wrap;connectable=0;strokeColor=inherit;overflow=hidden;fillColor=none;top=0;left=0;bottom=0;right=0;pointerEvents=1;fontSize=10;" parent="D5mw6t6R2wUG9PggTOd8-13" vertex="1">
                    <mxGeometry x="81" width="28" height="18" as="geometry">
                        <mxRectangle width="28" height="18" as="alternateBounds"/>
                    </mxGeometry>
                </mxCell>
                <mxCell id="D5mw6t6R2wUG9PggTOd8-18" value="木" style="shape=partialRectangle;html=1;whiteSpace=wrap;connectable=0;strokeColor=inherit;overflow=hidden;fillColor=none;top=0;left=0;bottom=0;right=0;pointerEvents=1;fontSize=10;" parent="D5mw6t6R2wUG9PggTOd8-13" vertex="1">
                    <mxGeometry x="109" width="27" height="18" as="geometry">
                        <mxRectangle width="27" height="18" as="alternateBounds"/>
                    </mxGeometry>
                </mxCell>
                <mxCell id="D5mw6t6R2wUG9PggTOd8-19" value="金" style="shape=partialRectangle;html=1;whiteSpace=wrap;connectable=0;strokeColor=inherit;overflow=hidden;fillColor=none;top=0;left=0;bottom=0;right=0;pointerEvents=1;fontSize=10;" parent="D5mw6t6R2wUG9PggTOd8-13" vertex="1">
                    <mxGeometry x="136" width="27" height="18" as="geometry">
                        <mxRectangle width="27" height="18" as="alternateBounds"/>
                    </mxGeometry>
                </mxCell>
                <mxCell id="D5mw6t6R2wUG9PggTOd8-20" value="土" style="shape=partialRectangle;html=1;whiteSpace=wrap;connectable=0;strokeColor=inherit;overflow=hidden;fillColor=none;top=0;left=0;bottom=0;right=0;pointerEvents=1;fontSize=10;" parent="D5mw6t6R2wUG9PggTOd8-13" vertex="1">
                    <mxGeometry x="163" width="27" height="18" as="geometry">
                        <mxRectangle width="27" height="18" as="alternateBounds"/>
                    </mxGeometry>
                </mxCell>
                <mxCell id="D5mw6t6R2wUG9PggTOd8-21" style="shape=tableRow;horizontal=0;startSize=0;swimlaneHead=0;swimlaneBody=0;strokeColor=inherit;top=0;left=0;bottom=0;right=0;collapsible=0;dropTarget=0;fillColor=none;points=[[0,0.5],[1,0.5]];portConstraint=eastwest;fontSize=10;" parent="D5mw6t6R2wUG9PggTOd8-12" vertex="1">
                    <mxGeometry y="38" width="190" height="19" as="geometry"/>
                </mxCell>
                <mxCell id="D5mw6t6R2wUG9PggTOd8-22" value="" style="shape=partialRectangle;html=1;whiteSpace=wrap;connectable=0;strokeColor=inherit;overflow=hidden;fillColor=none;top=0;left=0;bottom=0;right=0;pointerEvents=1;fontSize=10;" parent="D5mw6t6R2wUG9PggTOd8-21" vertex="1">
                    <mxGeometry width="27" height="19" as="geometry">
                        <mxRectangle width="27" height="19" as="alternateBounds"/>
                    </mxGeometry>
                </mxCell>
                <mxCell id="D5mw6t6R2wUG9PggTOd8-23" style="shape=partialRectangle;html=1;whiteSpace=wrap;connectable=0;strokeColor=inherit;overflow=hidden;fillColor=none;top=0;left=0;bottom=0;right=0;pointerEvents=1;fontSize=10;" parent="D5mw6t6R2wUG9PggTOd8-21" vertex="1">
                    <mxGeometry x="27" width="27" height="19" as="geometry">
                        <mxRectangle width="27" height="19" as="alternateBounds"/>
                    </mxGeometry>
                </mxCell>
                <mxCell id="D5mw6t6R2wUG9PggTOd8-24" style="shape=partialRectangle;html=1;whiteSpace=wrap;connectable=0;strokeColor=inherit;overflow=hidden;fillColor=none;top=0;left=0;bottom=0;right=0;pointerEvents=1;fontSize=10;" parent="D5mw6t6R2wUG9PggTOd8-21" vertex="1">
                    <mxGeometry x="54" width="27" height="19" as="geometry">
                        <mxRectangle width="27" height="19" as="alternateBounds"/>
                    </mxGeometry>
                </mxCell>
                <mxCell id="D5mw6t6R2wUG9PggTOd8-25" style="shape=partialRectangle;html=1;whiteSpace=wrap;connectable=0;strokeColor=inherit;overflow=hidden;fillColor=none;top=0;left=0;bottom=0;right=0;pointerEvents=1;fontSize=10;" parent="D5mw6t6R2wUG9PggTOd8-21" vertex="1">
                    <mxGeometry x="81" width="28" height="19" as="geometry">
                        <mxRectangle width="28" height="19" as="alternateBounds"/>
                    </mxGeometry>
                </mxCell>
                <mxCell id="D5mw6t6R2wUG9PggTOd8-26" value="1" style="shape=partialRectangle;html=1;whiteSpace=wrap;connectable=0;strokeColor=inherit;overflow=hidden;fillColor=none;top=0;left=0;bottom=0;right=0;pointerEvents=1;fontSize=10;" parent="D5mw6t6R2wUG9PggTOd8-21" vertex="1">
                    <mxGeometry x="109" width="27" height="19" as="geometry">
                        <mxRectangle width="27" height="19" as="alternateBounds"/>
                    </mxGeometry>
                </mxCell>
                <mxCell id="D5mw6t6R2wUG9PggTOd8-27" value="2" style="shape=partialRectangle;html=1;whiteSpace=wrap;connectable=0;strokeColor=inherit;overflow=hidden;fillColor=none;top=0;left=0;bottom=0;right=0;pointerEvents=1;fontSize=10;" parent="D5mw6t6R2wUG9PggTOd8-21" vertex="1">
                    <mxGeometry x="136" width="27" height="19" as="geometry">
                        <mxRectangle width="27" height="19" as="alternateBounds"/>
                    </mxGeometry>
                </mxCell>
                <mxCell id="D5mw6t6R2wUG9PggTOd8-28" value="3" style="shape=partialRectangle;html=1;whiteSpace=wrap;connectable=0;strokeColor=inherit;overflow=hidden;fillColor=none;top=0;left=0;bottom=0;right=0;pointerEvents=1;fontSize=10;" parent="D5mw6t6R2wUG9PggTOd8-21" vertex="1">
                    <mxGeometry x="163" width="27" height="19" as="geometry">
                        <mxRectangle width="27" height="19" as="alternateBounds"/>
                    </mxGeometry>
                </mxCell>
                <mxCell id="D5mw6t6R2wUG9PggTOd8-29" style="shape=tableRow;horizontal=0;startSize=0;swimlaneHead=0;swimlaneBody=0;strokeColor=inherit;top=0;left=0;bottom=0;right=0;collapsible=0;dropTarget=0;fillColor=none;points=[[0,0.5],[1,0.5]];portConstraint=eastwest;fontSize=10;" parent="D5mw6t6R2wUG9PggTOd8-12" vertex="1">
                    <mxGeometry y="57" width="190" height="18" as="geometry"/>
                </mxCell>
                <mxCell id="D5mw6t6R2wUG9PggTOd8-30" value="4" style="shape=partialRectangle;html=1;whiteSpace=wrap;connectable=0;strokeColor=inherit;overflow=hidden;fillColor=none;top=0;left=0;bottom=0;right=0;pointerEvents=1;fontSize=10;" parent="D5mw6t6R2wUG9PggTOd8-29" vertex="1">
                    <mxGeometry width="27" height="18" as="geometry">
                        <mxRectangle width="27" height="18" as="alternateBounds"/>
                    </mxGeometry>
                </mxCell>
                <mxCell id="D5mw6t6R2wUG9PggTOd8-31" value="5" style="shape=partialRectangle;html=1;whiteSpace=wrap;connectable=0;strokeColor=inherit;overflow=hidden;fillColor=none;top=0;left=0;bottom=0;right=0;pointerEvents=1;fontSize=10;" parent="D5mw6t6R2wUG9PggTOd8-29" vertex="1">
                    <mxGeometry x="27" width="27" height="18" as="geometry">
                        <mxRectangle width="27" height="18" as="alternateBounds"/>
                    </mxGeometry>
                </mxCell>
                <mxCell id="D5mw6t6R2wUG9PggTOd8-32" value="6" style="shape=partialRectangle;html=1;whiteSpace=wrap;connectable=0;strokeColor=inherit;overflow=hidden;fillColor=none;top=0;left=0;bottom=0;right=0;pointerEvents=1;fontSize=10;" parent="D5mw6t6R2wUG9PggTOd8-29" vertex="1">
                    <mxGeometry x="54" width="27" height="18" as="geometry">
                        <mxRectangle width="27" height="18" as="alternateBounds"/>
                    </mxGeometry>
                </mxCell>
                <mxCell id="D5mw6t6R2wUG9PggTOd8-33" value="7" style="shape=partialRectangle;html=1;whiteSpace=wrap;connectable=0;strokeColor=inherit;overflow=hidden;fillColor=none;top=0;left=0;bottom=0;right=0;pointerEvents=1;fontSize=10;" parent="D5mw6t6R2wUG9PggTOd8-29" vertex="1">
                    <mxGeometry x="81" width="28" height="18" as="geometry">
                        <mxRectangle width="28" height="18" as="alternateBounds"/>
                    </mxGeometry>
                </mxCell>
                <mxCell id="D5mw6t6R2wUG9PggTOd8-34" value="8" style="shape=partialRectangle;html=1;whiteSpace=wrap;connectable=0;strokeColor=inherit;overflow=hidden;fillColor=none;top=0;left=0;bottom=0;right=0;pointerEvents=1;fontSize=10;" parent="D5mw6t6R2wUG9PggTOd8-29" vertex="1">
                    <mxGeometry x="109" width="27" height="18" as="geometry">
                        <mxRectangle width="27" height="18" as="alternateBounds"/>
                    </mxGeometry>
                </mxCell>
                <mxCell id="D5mw6t6R2wUG9PggTOd8-35" value="9" style="shape=partialRectangle;html=1;whiteSpace=wrap;connectable=0;strokeColor=inherit;overflow=hidden;fillColor=none;top=0;left=0;bottom=0;right=0;pointerEvents=1;fontSize=10;" parent="D5mw6t6R2wUG9PggTOd8-29" vertex="1">
                    <mxGeometry x="136" width="27" height="18" as="geometry">
                        <mxRectangle width="27" height="18" as="alternateBounds"/>
                    </mxGeometry>
                </mxCell>
                <mxCell id="D5mw6t6R2wUG9PggTOd8-36" value="10" style="shape=partialRectangle;html=1;whiteSpace=wrap;connectable=0;strokeColor=inherit;overflow=hidden;fillColor=none;top=0;left=0;bottom=0;right=0;pointerEvents=1;fontSize=10;" parent="D5mw6t6R2wUG9PggTOd8-29" vertex="1">
                    <mxGeometry x="163" width="27" height="18" as="geometry">
                        <mxRectangle width="27" height="18" as="alternateBounds"/>
                    </mxGeometry>
                </mxCell>
                <mxCell id="D5mw6t6R2wUG9PggTOd8-37" style="shape=tableRow;horizontal=0;startSize=0;swimlaneHead=0;swimlaneBody=0;strokeColor=inherit;top=0;left=0;bottom=0;right=0;collapsible=0;dropTarget=0;fillColor=none;points=[[0,0.5],[1,0.5]];portConstraint=eastwest;fontSize=10;" parent="D5mw6t6R2wUG9PggTOd8-12" vertex="1">
                    <mxGeometry y="75" width="190" height="18" as="geometry"/>
                </mxCell>
                <mxCell id="D5mw6t6R2wUG9PggTOd8-38" value="11" style="shape=partialRectangle;html=1;whiteSpace=wrap;connectable=0;strokeColor=inherit;overflow=hidden;fillColor=none;top=0;left=0;bottom=0;right=0;pointerEvents=1;fontSize=10;" parent="D5mw6t6R2wUG9PggTOd8-37" vertex="1">
                    <mxGeometry width="27" height="18" as="geometry">
                        <mxRectangle width="27" height="18" as="alternateBounds"/>
                    </mxGeometry>
                </mxCell>
                <mxCell id="D5mw6t6R2wUG9PggTOd8-39" value="12" style="shape=partialRectangle;html=1;whiteSpace=wrap;connectable=0;strokeColor=inherit;overflow=hidden;fillColor=none;top=0;left=0;bottom=0;right=0;pointerEvents=1;fontSize=10;" parent="D5mw6t6R2wUG9PggTOd8-37" vertex="1">
                    <mxGeometry x="27" width="27" height="18" as="geometry">
                        <mxRectangle width="27" height="18" as="alternateBounds"/>
                    </mxGeometry>
                </mxCell>
                <mxCell id="D5mw6t6R2wUG9PggTOd8-40" value="13" style="shape=partialRectangle;html=1;whiteSpace=wrap;connectable=0;strokeColor=inherit;overflow=hidden;fillColor=none;top=0;left=0;bottom=0;right=0;pointerEvents=1;fontSize=10;" parent="D5mw6t6R2wUG9PggTOd8-37" vertex="1">
                    <mxGeometry x="54" width="27" height="18" as="geometry">
                        <mxRectangle width="27" height="18" as="alternateBounds"/>
                    </mxGeometry>
                </mxCell>
                <mxCell id="D5mw6t6R2wUG9PggTOd8-41" value="14" style="shape=partialRectangle;html=1;whiteSpace=wrap;connectable=0;strokeColor=inherit;overflow=hidden;fillColor=none;top=0;left=0;bottom=0;right=0;pointerEvents=1;fontSize=10;" parent="D5mw6t6R2wUG9PggTOd8-37" vertex="1">
                    <mxGeometry x="81" width="28" height="18" as="geometry">
                        <mxRectangle width="28" height="18" as="alternateBounds"/>
                    </mxGeometry>
                </mxCell>
                <mxCell id="D5mw6t6R2wUG9PggTOd8-42" value="15" style="shape=partialRectangle;html=1;whiteSpace=wrap;connectable=0;strokeColor=inherit;overflow=hidden;fillColor=none;top=0;left=0;bottom=0;right=0;pointerEvents=1;fontSize=10;" parent="D5mw6t6R2wUG9PggTOd8-37" vertex="1">
                    <mxGeometry x="109" width="27" height="18" as="geometry">
                        <mxRectangle width="27" height="18" as="alternateBounds"/>
                    </mxGeometry>
                </mxCell>
                <mxCell id="D5mw6t6R2wUG9PggTOd8-43" value="16" style="shape=partialRectangle;html=1;whiteSpace=wrap;connectable=0;strokeColor=inherit;overflow=hidden;fillColor=none;top=0;left=0;bottom=0;right=0;pointerEvents=1;fontSize=10;" parent="D5mw6t6R2wUG9PggTOd8-37" vertex="1">
                    <mxGeometry x="136" width="27" height="18" as="geometry">
                        <mxRectangle width="27" height="18" as="alternateBounds"/>
                    </mxGeometry>
                </mxCell>
                <mxCell id="D5mw6t6R2wUG9PggTOd8-44" value="17" style="shape=partialRectangle;html=1;whiteSpace=wrap;connectable=0;strokeColor=inherit;overflow=hidden;fillColor=none;top=0;left=0;bottom=0;right=0;pointerEvents=1;fontSize=10;" parent="D5mw6t6R2wUG9PggTOd8-37" vertex="1">
                    <mxGeometry x="163" width="27" height="18" as="geometry">
                        <mxRectangle width="27" height="18" as="alternateBounds"/>
                    </mxGeometry>
                </mxCell>
                <mxCell id="D5mw6t6R2wUG9PggTOd8-45" style="shape=tableRow;horizontal=0;startSize=0;swimlaneHead=0;swimlaneBody=0;strokeColor=inherit;top=0;left=0;bottom=0;right=0;collapsible=0;dropTarget=0;fillColor=none;points=[[0,0.5],[1,0.5]];portConstraint=eastwest;fontSize=10;" parent="D5mw6t6R2wUG9PggTOd8-12" vertex="1">
                    <mxGeometry y="93" width="190" height="19" as="geometry"/>
                </mxCell>
                <mxCell id="D5mw6t6R2wUG9PggTOd8-46" value="18" style="shape=partialRectangle;html=1;whiteSpace=wrap;connectable=0;strokeColor=inherit;overflow=hidden;fillColor=none;top=0;left=0;bottom=0;right=0;pointerEvents=1;fontSize=10;" parent="D5mw6t6R2wUG9PggTOd8-45" vertex="1">
                    <mxGeometry width="27" height="19" as="geometry">
                        <mxRectangle width="27" height="19" as="alternateBounds"/>
                    </mxGeometry>
                </mxCell>
                <mxCell id="D5mw6t6R2wUG9PggTOd8-47" value="19" style="shape=partialRectangle;html=1;whiteSpace=wrap;connectable=0;strokeColor=inherit;overflow=hidden;fillColor=none;top=0;left=0;bottom=0;right=0;pointerEvents=1;fontSize=10;" parent="D5mw6t6R2wUG9PggTOd8-45" vertex="1">
                    <mxGeometry x="27" width="27" height="19" as="geometry">
                        <mxRectangle width="27" height="19" as="alternateBounds"/>
                    </mxGeometry>
                </mxCell>
                <mxCell id="D5mw6t6R2wUG9PggTOd8-48" value="20" style="shape=partialRectangle;html=1;whiteSpace=wrap;connectable=0;strokeColor=inherit;overflow=hidden;fillColor=none;top=0;left=0;bottom=0;right=0;pointerEvents=1;fontSize=10;" parent="D5mw6t6R2wUG9PggTOd8-45" vertex="1">
                    <mxGeometry x="54" width="27" height="19" as="geometry">
                        <mxRectangle width="27" height="19" as="alternateBounds"/>
                    </mxGeometry>
                </mxCell>
                <mxCell id="D5mw6t6R2wUG9PggTOd8-49" value="21" style="shape=partialRectangle;html=1;whiteSpace=wrap;connectable=0;strokeColor=inherit;overflow=hidden;fillColor=none;top=0;left=0;bottom=0;right=0;pointerEvents=1;fontSize=10;" parent="D5mw6t6R2wUG9PggTOd8-45" vertex="1">
                    <mxGeometry x="81" width="28" height="19" as="geometry">
                        <mxRectangle width="28" height="19" as="alternateBounds"/>
                    </mxGeometry>
                </mxCell>
                <mxCell id="D5mw6t6R2wUG9PggTOd8-50" value="22" style="shape=partialRectangle;html=1;whiteSpace=wrap;connectable=0;strokeColor=inherit;overflow=hidden;fillColor=none;top=0;left=0;bottom=0;right=0;pointerEvents=1;fontSize=10;" parent="D5mw6t6R2wUG9PggTOd8-45" vertex="1">
                    <mxGeometry x="109" width="27" height="19" as="geometry">
                        <mxRectangle width="27" height="19" as="alternateBounds"/>
                    </mxGeometry>
                </mxCell>
                <mxCell id="D5mw6t6R2wUG9PggTOd8-51" value="23" style="shape=partialRectangle;html=1;whiteSpace=wrap;connectable=0;strokeColor=inherit;overflow=hidden;fillColor=none;top=0;left=0;bottom=0;right=0;pointerEvents=1;fontSize=10;" parent="D5mw6t6R2wUG9PggTOd8-45" vertex="1">
                    <mxGeometry x="136" width="27" height="19" as="geometry">
                        <mxRectangle width="27" height="19" as="alternateBounds"/>
                    </mxGeometry>
                </mxCell>
                <mxCell id="D5mw6t6R2wUG9PggTOd8-52" value="24" style="shape=partialRectangle;html=1;whiteSpace=wrap;connectable=0;strokeColor=inherit;overflow=hidden;fillColor=none;top=0;left=0;bottom=0;right=0;pointerEvents=1;fontSize=10;" parent="D5mw6t6R2wUG9PggTOd8-45" vertex="1">
                    <mxGeometry x="163" width="27" height="19" as="geometry">
                        <mxRectangle width="27" height="19" as="alternateBounds"/>
                    </mxGeometry>
                </mxCell>
                <mxCell id="D5mw6t6R2wUG9PggTOd8-53" value="" style="shape=tableRow;horizontal=0;startSize=0;swimlaneHead=0;swimlaneBody=0;strokeColor=inherit;top=0;left=0;bottom=0;right=0;collapsible=0;dropTarget=0;fillColor=none;points=[[0,0.5],[1,0.5]];portConstraint=eastwest;fontSize=10;" parent="D5mw6t6R2wUG9PggTOd8-12" vertex="1">
                    <mxGeometry y="112" width="190" height="18" as="geometry"/>
                </mxCell>
                <mxCell id="D5mw6t6R2wUG9PggTOd8-54" value="25" style="shape=partialRectangle;html=1;whiteSpace=wrap;connectable=0;strokeColor=inherit;overflow=hidden;fillColor=none;top=0;left=0;bottom=0;right=0;pointerEvents=1;fontSize=10;" parent="D5mw6t6R2wUG9PggTOd8-53" vertex="1">
                    <mxGeometry width="27" height="18" as="geometry">
                        <mxRectangle width="27" height="18" as="alternateBounds"/>
                    </mxGeometry>
                </mxCell>
                <mxCell id="D5mw6t6R2wUG9PggTOd8-55" value="26" style="shape=partialRectangle;html=1;whiteSpace=wrap;connectable=0;strokeColor=inherit;overflow=hidden;fillColor=none;top=0;left=0;bottom=0;right=0;pointerEvents=1;fontSize=10;" parent="D5mw6t6R2wUG9PggTOd8-53" vertex="1">
                    <mxGeometry x="27" width="27" height="18" as="geometry">
                        <mxRectangle width="27" height="18" as="alternateBounds"/>
                    </mxGeometry>
                </mxCell>
                <mxCell id="D5mw6t6R2wUG9PggTOd8-56" value="27" style="shape=partialRectangle;html=1;whiteSpace=wrap;connectable=0;strokeColor=inherit;overflow=hidden;fillColor=none;top=0;left=0;bottom=0;right=0;pointerEvents=1;fontSize=10;" parent="D5mw6t6R2wUG9PggTOd8-53" vertex="1">
                    <mxGeometry x="54" width="27" height="18" as="geometry">
                        <mxRectangle width="27" height="18" as="alternateBounds"/>
                    </mxGeometry>
                </mxCell>
                <mxCell id="D5mw6t6R2wUG9PggTOd8-57" value="28" style="shape=partialRectangle;html=1;whiteSpace=wrap;connectable=0;strokeColor=inherit;overflow=hidden;fillColor=none;top=0;left=0;bottom=0;right=0;pointerEvents=1;fontSize=10;" parent="D5mw6t6R2wUG9PggTOd8-53" vertex="1">
                    <mxGeometry x="81" width="28" height="18" as="geometry">
                        <mxRectangle width="28" height="18" as="alternateBounds"/>
                    </mxGeometry>
                </mxCell>
                <mxCell id="D5mw6t6R2wUG9PggTOd8-58" value="29" style="shape=partialRectangle;html=1;whiteSpace=wrap;connectable=0;strokeColor=inherit;overflow=hidden;fillColor=none;top=0;left=0;bottom=0;right=0;pointerEvents=1;fontSize=10;" parent="D5mw6t6R2wUG9PggTOd8-53" vertex="1">
                    <mxGeometry x="109" width="27" height="18" as="geometry">
                        <mxRectangle width="27" height="18" as="alternateBounds"/>
                    </mxGeometry>
                </mxCell>
                <mxCell id="D5mw6t6R2wUG9PggTOd8-59" value="30" style="shape=partialRectangle;html=1;whiteSpace=wrap;connectable=0;strokeColor=inherit;overflow=hidden;fillColor=none;top=0;left=0;bottom=0;right=0;pointerEvents=1;fontSize=10;" parent="D5mw6t6R2wUG9PggTOd8-53" vertex="1">
                    <mxGeometry x="136" width="27" height="18" as="geometry">
                        <mxRectangle width="27" height="18" as="alternateBounds"/>
                    </mxGeometry>
                </mxCell>
                <mxCell id="D5mw6t6R2wUG9PggTOd8-60" value="31" style="shape=partialRectangle;html=1;whiteSpace=wrap;connectable=0;strokeColor=inherit;overflow=hidden;fillColor=none;top=0;left=0;bottom=0;right=0;pointerEvents=1;fontSize=10;" parent="D5mw6t6R2wUG9PggTOd8-53" vertex="1">
                    <mxGeometry x="163" width="27" height="18" as="geometry">
                        <mxRectangle width="27" height="18" as="alternateBounds"/>
                    </mxGeometry>
                </mxCell>
                <mxCell id="D5mw6t6R2wUG9PggTOd8-61" value="&lt;u&gt;業務日報 利用者一覧&lt;/u&gt;" style="rounded=0;whiteSpace=wrap;html=1;verticalAlign=top;align=center;" parent="1" vertex="1">
                    <mxGeometry x="443" y="136" width="215" height="184" as="geometry"/>
                </mxCell>
                <mxCell id="D5mw6t6R2wUG9PggTOd8-62" value="⇐　2025年5月　⇒" style="shape=table;startSize=30;container=1;collapsible=0;childLayout=tableLayout;strokeColor=default;fontSize=14;" parent="1" vertex="1">
                    <mxGeometry x="470" y="161" width="160" height="150" as="geometry"/>
                </mxCell>
                <mxCell id="D5mw6t6R2wUG9PggTOd8-63" value="" style="shape=tableRow;horizontal=0;startSize=0;swimlaneHead=0;swimlaneBody=0;strokeColor=inherit;top=0;left=0;bottom=0;right=0;collapsible=0;dropTarget=0;fillColor=none;points=[[0,0.5],[1,0.5]];portConstraint=eastwest;fontSize=12;" parent="D5mw6t6R2wUG9PggTOd8-62" vertex="1">
                    <mxGeometry y="30" width="160" height="18" as="geometry"/>
                </mxCell>
                <mxCell id="D5mw6t6R2wUG9PggTOd8-64" value="&lt;b&gt;利用者氏名&lt;/b&gt;" style="shape=partialRectangle;html=1;whiteSpace=wrap;connectable=0;strokeColor=inherit;overflow=hidden;fillColor=none;top=0;left=0;bottom=0;right=0;pointerEvents=1;fontSize=12;" parent="D5mw6t6R2wUG9PggTOd8-63" vertex="1">
                    <mxGeometry width="160" height="18" as="geometry">
                        <mxRectangle width="160" height="18" as="alternateBounds"/>
                    </mxGeometry>
                </mxCell>
                <mxCell id="D5mw6t6R2wUG9PggTOd8-65" value="" style="shape=tableRow;horizontal=0;startSize=0;swimlaneHead=0;swimlaneBody=0;strokeColor=inherit;top=0;left=0;bottom=0;right=0;collapsible=0;dropTarget=0;fillColor=none;points=[[0,0.5],[1,0.5]];portConstraint=eastwest;fontSize=12;" parent="D5mw6t6R2wUG9PggTOd8-62" vertex="1">
                    <mxGeometry y="48" width="160" height="16" as="geometry"/>
                </mxCell>
                <mxCell id="D5mw6t6R2wUG9PggTOd8-66" value="大阪　太郎" style="shape=partialRectangle;html=1;whiteSpace=wrap;connectable=0;strokeColor=inherit;overflow=hidden;fillColor=none;top=0;left=0;bottom=0;right=0;pointerEvents=1;fontSize=12;" parent="D5mw6t6R2wUG9PggTOd8-65" vertex="1">
                    <mxGeometry width="160" height="16" as="geometry">
                        <mxRectangle width="160" height="16" as="alternateBounds"/>
                    </mxGeometry>
                </mxCell>
                <mxCell id="D5mw6t6R2wUG9PggTOd8-67" style="shape=tableRow;horizontal=0;startSize=0;swimlaneHead=0;swimlaneBody=0;strokeColor=inherit;top=0;left=0;bottom=0;right=0;collapsible=0;dropTarget=0;fillColor=none;points=[[0,0.5],[1,0.5]];portConstraint=eastwest;fontSize=12;" parent="D5mw6t6R2wUG9PggTOd8-62" vertex="1">
                    <mxGeometry y="64" width="160" height="18" as="geometry"/>
                </mxCell>
                <mxCell id="D5mw6t6R2wUG9PggTOd8-68" value="兵庫　次郎" style="shape=partialRectangle;html=1;whiteSpace=wrap;connectable=0;strokeColor=inherit;overflow=hidden;fillColor=none;top=0;left=0;bottom=0;right=0;pointerEvents=1;fontSize=12;" parent="D5mw6t6R2wUG9PggTOd8-67" vertex="1">
                    <mxGeometry width="160" height="18" as="geometry">
                        <mxRectangle width="160" height="18" as="alternateBounds"/>
                    </mxGeometry>
                </mxCell>
                <mxCell id="D5mw6t6R2wUG9PggTOd8-69" style="shape=tableRow;horizontal=0;startSize=0;swimlaneHead=0;swimlaneBody=0;strokeColor=inherit;top=0;left=0;bottom=0;right=0;collapsible=0;dropTarget=0;fillColor=none;points=[[0,0.5],[1,0.5]];portConstraint=eastwest;fontSize=12;" parent="D5mw6t6R2wUG9PggTOd8-62" vertex="1">
                    <mxGeometry y="82" width="160" height="16" as="geometry"/>
                </mxCell>
                <mxCell id="D5mw6t6R2wUG9PggTOd8-70" value="京都　三郎" style="shape=partialRectangle;html=1;whiteSpace=wrap;connectable=0;strokeColor=inherit;overflow=hidden;fillColor=none;top=0;left=0;bottom=0;right=0;pointerEvents=1;fontSize=12;" parent="D5mw6t6R2wUG9PggTOd8-69" vertex="1">
                    <mxGeometry width="160" height="16" as="geometry">
                        <mxRectangle width="160" height="16" as="alternateBounds"/>
                    </mxGeometry>
                </mxCell>
                <mxCell id="D5mw6t6R2wUG9PggTOd8-71" style="shape=tableRow;horizontal=0;startSize=0;swimlaneHead=0;swimlaneBody=0;strokeColor=inherit;top=0;left=0;bottom=0;right=0;collapsible=0;dropTarget=0;fillColor=none;points=[[0,0.5],[1,0.5]];portConstraint=eastwest;fontSize=12;" parent="D5mw6t6R2wUG9PggTOd8-62" vertex="1">
                    <mxGeometry y="98" width="160" height="18" as="geometry"/>
                </mxCell>
                <mxCell id="D5mw6t6R2wUG9PggTOd8-72" value="奈良　花子" style="shape=partialRectangle;html=1;whiteSpace=wrap;connectable=0;strokeColor=inherit;overflow=hidden;fillColor=none;top=0;left=0;bottom=0;right=0;pointerEvents=1;fontSize=12;" parent="D5mw6t6R2wUG9PggTOd8-71" vertex="1">
                    <mxGeometry width="160" height="18" as="geometry">
                        <mxRectangle width="160" height="18" as="alternateBounds"/>
                    </mxGeometry>
                </mxCell>
                <mxCell id="D5mw6t6R2wUG9PggTOd8-73" style="shape=tableRow;horizontal=0;startSize=0;swimlaneHead=0;swimlaneBody=0;strokeColor=inherit;top=0;left=0;bottom=0;right=0;collapsible=0;dropTarget=0;fillColor=none;points=[[0,0.5],[1,0.5]];portConstraint=eastwest;fontSize=12;" parent="D5mw6t6R2wUG9PggTOd8-62" vertex="1">
                    <mxGeometry y="116" width="160" height="16" as="geometry"/>
                </mxCell>
                <mxCell id="D5mw6t6R2wUG9PggTOd8-74" value="和歌山　めぐみ" style="shape=partialRectangle;html=1;whiteSpace=wrap;connectable=0;strokeColor=inherit;overflow=hidden;fillColor=none;top=0;left=0;bottom=0;right=0;pointerEvents=1;fontSize=12;" parent="D5mw6t6R2wUG9PggTOd8-73" vertex="1">
                    <mxGeometry width="160" height="16" as="geometry">
                        <mxRectangle width="160" height="16" as="alternateBounds"/>
                    </mxGeometry>
                </mxCell>
                <mxCell id="D5mw6t6R2wUG9PggTOd8-75" value="" style="shape=tableRow;horizontal=0;startSize=0;swimlaneHead=0;swimlaneBody=0;strokeColor=inherit;top=0;left=0;bottom=0;right=0;collapsible=0;dropTarget=0;fillColor=none;points=[[0,0.5],[1,0.5]];portConstraint=eastwest;fontSize=12;" parent="D5mw6t6R2wUG9PggTOd8-62" vertex="1">
                    <mxGeometry y="132" width="160" height="18" as="geometry"/>
                </mxCell>
                <mxCell id="D5mw6t6R2wUG9PggTOd8-76" value="滋賀　京子" style="shape=partialRectangle;html=1;whiteSpace=wrap;connectable=0;strokeColor=inherit;overflow=hidden;fillColor=none;top=0;left=0;bottom=0;right=0;pointerEvents=1;fontSize=12;" parent="D5mw6t6R2wUG9PggTOd8-75" vertex="1">
                    <mxGeometry width="160" height="18" as="geometry">
                        <mxRectangle width="160" height="18" as="alternateBounds"/>
                    </mxGeometry>
                </mxCell>
                <mxCell id="VUkLGGgLgqpX2v7hKJGa-1" value="【業務日報アプリ】ワイヤーフレーム" style="text;html=1;align=center;verticalAlign=middle;whiteSpace=wrap;rounded=0;fillColor=#0050ef;fontColor=#ffffff;strokeColor=#001DBC;" parent="1" vertex="1">
                    <mxGeometry width="230" height="30" as="geometry"/>
                </mxCell>
            </root>
        </mxGraphModel>
    </diagram>
</mxfile>